<?xml version="1.0" encoding="utf-8"?>
<!-- Generator: Adobe Illustrator 24.0.1, SVG Export Plug-In . SVG Version: 6.00 Build 0)  -->
<svg version="1.1" id="Layer_1" xmlns="http://www.w3.org/2000/svg" xmlns:xlink="http://www.w3.org/1999/xlink" x="0px" y="0px"
	 viewBox="0 0 2500 2500" style="enable-background:new 0 0 2500 2500;" xml:space="preserve">
<style type="text/css">
	.st0{fill-rule:evenodd;clip-rule:evenodd;fill:#FFFFFF;}
</style>
<g>
	<path class="st0" d="M328.4,1286.7h94l-34.8-77.1c-1.9-5.6-3.8-11.3-5.6-17.9c-1.9-5.6-4.7-13.2-6.6-20.7
		c-1.9,6.6-3.8,14.1-5.7,20.7c-2.8,6.6-4.7,12.2-6.6,17.9L328.4,1286.7z M480.6,1420.1l-38.5-87.4H307.7l-39.5,87.4h-57.3
		l163.6-353.4l164.5,353.4H480.6z M913,1433.3l-151.3-352.5H819l75.2,180.5c4.7,10.3,8.5,19.7,11.3,29.1c2.8,8.5,5.6,16.9,7.5,25.4
		c1.9-8.5,4.7-16.9,7.5-26.3c2.8-9.4,6.6-18.8,10.3-28.2l76.1-180.5h57.3L913,1433.3L913,1433.3z M1622.7,1250.9
		c0-16.9-2.8-33.9-9.4-48.9c-6.6-16-15-29.1-27.3-41.4c-11.3-12.2-24.4-20.7-39.5-27.3c-15-6.6-31-9.4-47-9.4
		c-16.9,0-32.9,2.8-47.9,9.4c-15,5.6-28.2,15-40.4,27.3c-11.3,12.2-20.7,25.4-27.3,41.4c-5.6,15-8.5,32-8.5,48.9s2.8,32.9,8.5,48.9
		c6.6,15,16,29.2,27.3,40.4c12.2,12.2,25.4,21.6,40.4,28.2c15,5.7,31,9.4,47.9,9.4c16,0,32-3.7,47-9.4c14.1-6.6,28.2-16,39.5-28.2
		c12.2-11.3,20.7-25.4,27.3-40.4C1619.9,1283.8,1622.7,1267.9,1622.7,1250.9z M1680,1250.9c0,24.4-4.7,47-13.2,68.6
		c-9.6,21.3-23,40.7-39.5,57.3c-17.9,16.9-37.6,29.1-59.2,38.5c-21.9,8.6-45.1,13.1-68.6,13.2c-25.4,0-47.9-4.7-70.5-13.2
		c-21.6-9.4-41.3-21.6-58.3-38.5c-17.9-16.9-31-35.7-39.5-57.3c-9.4-21.6-14.2-45-14.1-68.6c0-24.4,4.7-47,14.1-68.6
		c8.5-21.6,21.6-40.4,39.5-57.3c16.9-16.9,36.7-30.1,58.3-38.5c22.6-9.4,45.1-13.2,70.5-13.2c23.5,0,47,3.8,68.6,13.2
		c22.6,8.5,41.4,21.6,59.2,38.5c16.9,16.9,30.1,35.7,39.5,57.3C1675.6,1204.2,1680,1227.4,1680,1250.9z M1985.5,1420.1v-353.4
		l216.2,207.7c5.7,5.7,11.3,12.2,17.9,18.8c5.7,6.6,12.2,14.1,18.8,22.5v-235h50.7v352.5l-220-211.5c-5.6-5.6-11.3-11.3-16.9-17.9
		c-5.6-6.6-10.3-13.2-16-19.7v235.9L1985.5,1420.1L1985.5,1420.1L1985.5,1420.1z"/>
</g>
</svg>
