<?xml version="1.0" encoding="utf-8"?>
<!-- Generator: Adobe Illustrator 24.0.1, SVG Export Plug-In . SVG Version: 6.00 Build 0)  -->
<svg version="1.1" id="Layer_1" xmlns="http://www.w3.org/2000/svg" xmlns:xlink="http://www.w3.org/1999/xlink" x="0px" y="0px"
	 viewBox="0 0 656.6 226.8" style="enable-background:new 0 0 656.6 226.8;" xml:space="preserve">
<style type="text/css">
	.st0{fill:#010101;}
	.st1{fill:#0D4137;}
	.st2{fill:#E57C86;}
	.st3{fill:#D5593D;}
	.st4{fill:#151515;}
	.st5{fill:#020202;}
	.st6{fill:#262626;}
	.st7{fill:#272727;}
	.st8{fill:#030303;}
	.st9{fill:#D25C38;}
	.st10{fill:#F9F9F6;}
	.st11{fill:#FCFAF8;}
	.st12{fill:#323232;}
	.st13{fill:#D1D1D1;}
	.st14{fill:#FEFEFE;}
	.st15{fill:#FDFDFD;}
	.st16{fill:#FCFCFC;}
	.st17{fill:#ED7C8B;}
	.st18{fill:#D99FAA;}
	.st19{fill:#CF5E2C;}
</style>
<g>
	<g>
		<path class="st0" d="M578.5,117.1c8-8.5,21.2-8.5,28.8,1.6c5.1-6.8,11.9-9.1,20.1-7c6.8,1.7,11.5,6.8,11.9,13.7
			c0.4,9.1,0.2,18.2,0.3,27.3c0,1.5-0.7,2.2-2.2,2.4c-7.1,0.9-7.7,0.4-7.7-6.6c0-5.9,0-11.7,0-17.6c0-7.4-3.1-11.4-8.8-11.6
			c-6.3-0.2-11.1,4.3-11.4,11.3c-0.3,6.4,0,12.7-0.1,19.1c0,1.7,1.1,4.2-1,5.1c-2.4,0.9-5.2,0.6-7.7,0.1c-1.6-0.4-1-2.1-1-3.2
			c-0.1-7.4,0.1-14.7-0.1-22.1c-0.1-3.9-1.2-7.5-5.1-9.3c-3.7-1.7-7.4-1.2-10.6,1.2c-3.4,2.5-4.5,6.2-4.5,10.2c0,6.5-0.2,13,0,19.5
			c0.1,3.1-0.9,4.4-4,4c-1-0.1-2-0.1-3,0c-2.3,0.2-3.1-0.8-3.1-3c0.1-12.4,0.1-24.7,0-37.1c0-2.2,0.9-2.9,2.9-2.8
			c0.6,0.1,1.3,0,1.9,0C577.2,111.9,579.8,112.3,578.5,117.1z"/>
		<path d="M421.8,37.5c9.9-8.6,20.6-7.9,28.3,2c4.8-6.6,11.4-9,19.3-7.5c7.8,1.5,12.7,7.3,13,15.7c0.3,8.4,0.1,16.7,0.1,25.1
			c0,2.2-0.9,2.8-2.9,2.8c-8.8-0.1-7,0.6-7.1-6.8c-0.1-5.9,0-11.7,0-17.6c-0.1-7-3-10.9-8.4-11.3c-6.3-0.4-11.3,3.7-11.7,10.5
			c-0.4,7-0.4,14-0.2,21c0.1,3.2-0.7,4.7-4.1,4.2c-1-0.2-2-0.1-3,0c-2.3,0.2-3-0.9-3-3.1c0.1-7,0.1-14,0-21c0-7.5-3-11.4-8.8-11.6
			c-6.5-0.2-11.2,4.5-11.4,11.7c-0.2,6.7-0.2,13.5,0,20.2c0.1,3-0.9,3.9-3.8,3.8c-7.2-0.2-6.1,0.7-6.1-6.2
			c-0.1-10.9,0.1-21.7-0.1-32.6c0-3.1,0.7-4.2,3.9-4C421.2,32.9,421.2,32.7,421.8,37.5z"/>
		<path d="M496.4,116.8c0.2-4.2,4.2-6.2,7.8-4.5c1.2,0.6,1,1.6,1,2.6c0,12.9,0.1,25.7-0.1,38.6c-0.2,8.8-5.1,14.9-13.6,17.1
			c-8.7,2.3-17.1,1.4-25-3.1c-2.9-1.7-2.9-7.2-0.1-8.9c1.3-0.8,2.1,0.4,3,0.9c5.4,3.1,11.2,4.2,17.3,3.1c6.6-1.2,10.1-5.8,9.3-12
			c-11.1,7.7-22.4,7.1-30-1.8c-7.6-8.8-7.2-23.1,0.8-31.5C474.6,109.2,486,108.9,496.4,116.8z"/>
		<path d="M32.7,46c0-8.5,0.1-17-0.1-25.5c0-2.6,0.5-3.8,3.5-3.8c10.2,0.2,20.5,0.1,30.7,0c2.6,0,3.7,0.9,3.3,3.5
			c-0.1,0.9-0.1,1.8,0,2.6c0.3,2.7-0.8,3.5-3.4,3.4c-7.2-0.1-14.5,0-21.7-0.1c-2,0-2.9,0.4-2.7,2.6c0.2,3.5-1.1,8,0.6,10.2
			c1.8,2.3,6.5,0.6,10,0.7c4.2,0.2,8.5,0.2,12.7,0c2.5-0.1,3.4,0.8,3.1,3.2c-0.1,0.5-0.1,1,0,1.5c0.6,3.5-0.7,4.8-4.4,4.6
			c-6.4-0.3-12.7,0-19.1-0.1c-2.4-0.1-3,0.7-2.9,3c0.2,3.9,0.2,7.8,0,11.6c-0.1,2.2,0.6,2.7,2.7,2.7c7.4-0.1,14.7,0.1,22.1-0.1
			c2.9-0.1,4,0.7,3.9,3.8c-0.3,6.2,0.6,5.6-5.6,5.7c-9.5,0-19-0.2-28.5,0.1c-3.6,0.1-4.4-1.1-4.3-4.5C32.8,62.8,32.7,54.4,32.7,46z"
			/>
		<path d="M76.3,155.1c-3.7,1.1-5.2-1.3-6.5-5c-2.6-8.1-2.8-8-11.4-8c-4.4,0-8.7,0.1-13.1,0c-1.8,0-2.8,0.4-3.2,2.3
			c-0.3,1.3-0.9,2.6-1.4,3.9c-3.3,8.3-0.8,6.7-10.2,7c-3.3,0.1-3.4-1.1-2.3-3.8c6.9-17,13.8-34,20.5-51c1.3-3.3,3-4.1,6.3-4.2
			c3.5,0,5,1.1,6.3,4.3c6.4,16.4,13,32.7,19.6,49C83.2,155.1,83.2,155.1,76.3,155.1z"/>
		<path d="M101.2,151c0,5.2-0.3,10.3,0.1,15.4c0.3,3.9-1.1,5.3-4.8,4.6c-0.2,0-0.5,0-0.7,0c-3,0.5-4.1-0.6-4-3.9
			c0.2-13.1,0.1-26.2,0.1-39.3c0-3.9,0.2-7.8-0.1-11.6c-0.3-3.5,1.1-4.2,4.3-4.1c3,0.1,5.6,0,4.3,4.7c5-4.5,10.6-6.5,16.9-5.8
			c6.3,0.7,11.4,3.6,15,8.8c6.3,8.9,5.3,21.9-2,29.8C122.6,157.7,113.2,158.2,101.2,151z"/>
		<path d="M322,150.3c-10.1,7.9-21.1,7.7-28.9-0.2c-8.1-8.3-8.6-22.5-1.2-31.5c7.3-8.9,18.2-9.9,29.4-2.4c0-5.7,0-11.1,0-16.5
			c0-3.2,5.5-6.9,8.4-5.6c1.5,0.6,1,2.1,1,3.3c0,11.9,0,23.7,0,35.6c0,5.9-0.1,11.7,0,17.6c0,2.7,0.2,4.9-3.8,4.7
			C322.2,154.9,322.2,155.1,322,150.3z"/>
		<path d="M439.9,148.9c-5.2,5.5-11.2,7.9-18.4,7.2c-5.7-0.6-10.3-3.9-11.5-8.7c-1.4-5.6,0.1-10.4,4.7-14c6.6-5.1,14.2-5.9,22.1-4.9
			c3.5,0.4,3.2-0.9,2.3-3.1c-1.4-3.4-4.2-4.8-7.6-5.3c-5-0.8-9.7,0.2-14.3,2.1c-2.4,1-3.5,0.3-4-2c-0.5-2.1-3.1-4.5,1-6.1
			c6.8-2.6,13.7-3.9,20.9-2.5c8.9,1.7,13.8,7.2,14.3,16.2c0.3,5,0.1,10,0.1,15c0,3,0,6,0.9,8.9c0.7,2.5,0.1,3.4-2.5,3.5
			C442.1,155.3,441.9,155.2,439.9,148.9z"/>
		<path d="M524.3,69.2c-4.9,5.2-10.4,7.8-17,7.5c-6.8-0.3-11.7-3.6-13.2-9.1c-1.6-5.9,0.9-11.6,6.9-15.2c6.2-3.7,13-4.4,19.9-3.5
			c3.3,0.4,3.4-0.7,2.4-3.1c-1.4-3.4-4.2-4.8-7.6-5.3c-4.8-0.7-9.5,0.1-13.9,2c-2.4,1-3.7,0.8-4.4-1.9c-0.6-2.3-2.9-4.7,1.3-6.2
			c7-2.5,14-3.7,21.3-2.2c8.1,1.7,12.9,7,13.5,15.3c0.4,5.7,0.1,11.5,0.3,17.2c0.1,2.4,0.1,4.8,0.8,7.1c0.8,2.9,0.1,3.5-2.8,3.8
			C527.1,76.1,524.7,74.4,524.3,69.2z"/>
		<path class="st0" d="M384.3,57.3c-4.1,0-8.2,0.2-12.4-0.1c-3.1-0.2-3,1-2,3.2c2.3,5.2,7.8,8.1,15,7.6c3.2-0.2,6.5-0.5,9.4-2
			c1.8-0.9,2.6-0.6,3.4,1.3c2.1,5.2,1.9,5.9-3.5,7.8c-5.3,1.8-10.8,2.2-16.3,1.3c-13.3-2.1-21.1-14-18.1-27.4
			c2.8-12.6,14.4-20,26.4-16.8c9.6,2.6,15.8,12.6,14.1,22.7c-0.3,2-1.3,2.4-3,2.4C393.1,57.3,388.7,57.3,384.3,57.3z"/>
		<path class="st0" d="M541.5,136.8c-4.2,0-8.5,0.1-12.7-0.1c-2.6-0.1-2.6,1-1.8,2.8c1.9,4.4,5.3,6.8,9.9,7.6
			c4.9,0.8,9.7,0.4,14.3-1.5c1.4-0.6,3-1.6,3.5,0.8c0.4,2.2,3.4,4.4,0.1,6.6c-7.7,5.3-24.1,3.9-31.4-2.6c-7.3-6.6-9.1-18.5-4.2-27.9
			c4.8-9.2,14.8-13.5,24.7-10.7c9.2,2.6,14.6,11.4,13.8,21.8c-0.2,2.4-1.1,3.3-3.4,3.2C550,136.7,545.7,136.8,541.5,136.8z"/>
		<path class="st0" d="M206.1,136.8c-4.1,0-8.2,0.2-12.4-0.1c-3.3-0.2-3.2,1.1-2.1,3.4c2,4,5.2,6.3,9.6,7c5,0.8,10,0.4,14.7-1.6
			c1.3-0.6,2.9-1.3,3.2,0.8c0.4,2.2,3.5,4.4,0.3,6.6c-7.8,5.7-25,3.9-32.2-3.2c-7.4-7.3-8.4-20.6-2.1-29.7c5.3-7.7,15.3-11,24.2-8
			c8.3,2.8,13.4,11.1,13,20.7c-0.1,2.8-0.8,4.4-4.2,4.1C214.1,136.5,210.1,136.8,206.1,136.8z"/>
		<path class="st0" d="M150.5,31.6c12.9-0.1,22.9,9.9,22.9,22.7c0,12.7-9.9,22.5-22.6,22.5c-13,0.1-22.9-9.8-22.9-22.6
			C127.9,41.5,137.8,31.6,150.5,31.6z"/>
		<path class="st0" d="M242.9,117.6c5.6-6,11.7-7.5,18.7-6.3c8.4,1.4,13.8,7.6,14,16.1c0.2,8.2,0,16.5,0.1,24.7c0,2.4-0.9,3.2-3.1,3
			c-1-0.1-2-0.1-3,0c-2.9,0.4-4-0.7-3.9-3.7c0.2-6.4,0.1-12.7,0.1-19.1c0-8.5-3.6-12.9-10.2-13c-6.9-0.1-11.9,5.2-12.2,13
			c-0.2,6.2-0.2,12.5,0,18.7c0.1,3.4-0.9,4.5-4.2,4.1c-2.7-0.3-6,1.1-5.8-4.1c0.4-11.5,0.2-23,0-34.5c-0.1-3.4,0.8-4.6,4.3-4.4
			C241.2,112.3,244.5,111.9,242.9,117.6z"/>
		<path class="st0" d="M378.5,146.4c7.2,0,13.5,0.2,19.9-0.1c3.7-0.1,3.2,2.2,3.2,4.4c0,2.2,0.6,4.5-3.1,4.5
			c-9.4-0.2-18.7,0-28.1-0.1c-1.6,0-4.1,1-4.7-1c-0.7-2.4-1.1-5.1,1-7.4c3.9-4.2,7.7-8.5,11.5-12.8c3.6-4.1,7.3-8.2,11.5-12.9
			c-6.9,0-13.1-0.2-19.2,0.1c-3.8,0.2-4.2-1.4-4.3-4.6c-0.1-3.3,0.9-4.3,4.2-4.2c8.7,0.2,17.5,0,26.2,0.1c1.8,0,4.6-1.2,5.4,1.1
			c0.8,2.6,0.6,5.4-1.7,7.9c-6.6,7.3-13,14.8-19.5,22.3C380.3,144.3,379.7,145,378.5,146.4z"/>
		<path class="st0" d="M103.4,76.8c-10.2,0-18.7-6.2-21.6-15.9c-2.9-9.7,0.8-20.2,9.1-25.6c8.3-5.5,19.6-4.8,27.2,1.5
			c1.6,1.3,3,2.6,0.8,4.4c-1.7,1.4-2.3,5.2-6,2.3c-5.4-4.2-12.2-4.3-17-0.8c-4.7,3.5-6.7,10-4.8,16.1c2.8,9,13.3,12.3,21.3,6.6
			c1.1-0.8,2.1-2.8,3.8-1.4c1.6,1.3,3.2,2.9,3.9,4.9c0.4,1-0.8,1.7-1.6,2.3C114.7,74.8,109.2,76.8,103.4,76.8z"/>
		<path class="st0" d="M330.3,53.4c0-3-0.2-6,0.1-9c0.2-2.6-0.8-3.2-3.2-3c-1.4,0.1-3.5,0.9-3.9-1c-0.5-2.1-0.5-4.6,0.1-6.6
			c0.5-1.6,2.7-0.9,4.1-0.8c2.2,0.1,3.3-0.6,2.9-2.9c-0.1-0.5,0-1,0-1.5c0-6.5,1-7.5,7.5-8c1.4-0.1,2.2,0.3,2.2,1.7
			c0,0.2,0,0.5,0,0.7c0.1,3.1-1,7.1,0.5,9.1c1.6,2.2,5.8,0.6,8.9,0.8c1.6,0.1,2,0.9,2.2,2.4c0.5,6.2,0.4,6.3-5.7,6.3
			c-1.1,0-2.3,0.1-3.4,0c-2.1-0.3-2.5,0.7-2.4,2.6c0.1,5.6,0,11.2,0.1,16.9c0.1,4.9,2.5,7.4,7.3,6.7c5.4-0.8,3.8,3.5,4.5,5.8
			c0.9,3-1.8,3-3.7,3.3c-10.6,1.6-17.7-4.5-17.8-15.3C330.2,58.6,330.3,56,330.3,53.4z"/>
		<path class="st0" d="M195.7,76.8c-3.5,0-6.9-0.6-10.2-1.9c-3.7-1.4-1.6-3.7-1-5.8c0.6-2.1,1.4-3.2,3.9-2.1
			c3.7,1.6,7.7,1.9,11.7,0.6c1.8-0.6,3.4-1.6,3.6-3.8c0.2-2.2-1.1-3.5-2.9-4.4c-3-1.4-6.2-2.7-9.2-4.1c-6-2.8-8.5-6.4-8.2-11.7
			c0.3-5,4-9.2,9.8-11c5.2-1.6,10.3-1.4,15.5,0.3c1.8,0.6,3.1,1.6,1.8,3.5c-1.2,1.7,0,5.7-4.3,4.5c-2.9-0.8-5.9-1.2-8.9-0.4
			c-1.9,0.5-3.7,1.3-4,3.4c-0.4,2.4,1.5,3.3,3.2,4c3,1.3,6,2.5,8.9,3.9c5,2.4,8.1,6.2,7.8,12.1c-0.3,5.5-4.2,10-10,11.8
			C200.7,76.6,198.2,76.8,195.7,76.8z"/>
		<path class="st0" d="M234.8,76.9c-3.5,0-6.9-0.8-10.3-1.9c-3.7-1.3-2-3.5-1.3-5.7c0.7-2.1,1.4-3.5,4.2-2.2
			c3.7,1.6,7.8,1.9,11.7,0.5c1.8-0.7,3.4-1.8,3.5-4c0.1-2-1.1-3.3-2.7-4.1c-3-1.5-6.2-2.7-9.2-4.1c-6.4-3-8.9-6.7-8.3-12.3
			c0.5-5,4.6-9.2,10.6-10.7c4.9-1.3,9.9-1.1,14.7,0.6c2,0.7,2.7,2,1.6,3.6c-1.1,1.7-0.1,5.4-4.1,4.4c-2.9-0.8-5.9-1.2-8.9-0.5
			c-2,0.5-3.9,1.2-4.2,3.6c-0.3,2.3,1.6,3.2,3.3,4c2.5,1.1,5.1,2.1,7.6,3.2c7,3.2,9.6,7.4,8.8,13.6c-0.8,5.9-5.3,10.2-12.1,11.5
			C238.1,76.7,236.4,76.7,234.8,76.9z"/>
		<path class="st0" d="M299.2,76.9c-2.8,0-5.5-0.5-8.1-1.3c-4.7-1.5-4.7-1.8-3.1-6.6c0.9-2.6,2-2.8,4.4-1.9c3.5,1.4,7.3,1.7,11,0.5
			c2-0.6,3.7-1.6,3.9-4c0.2-2.2-1.2-3.5-2.9-4.3c-3.3-1.5-6.6-2.9-9.9-4.4c-4.6-2.2-7.8-5.4-7.5-11c0.3-5.5,3.7-8.9,8.5-10.8
			c5.4-2.1,11-2.1,16.5-0.3c1.6,0.5,3.5,1.1,2.2,3.3c-1.2,1.8-0.1,5.9-4.5,4.8c-3.1-0.8-6.1-1.1-9.2-0.2c-1.7,0.5-3.3,1.4-3.6,3.4
			c-0.3,2.1,1.3,3.1,2.9,3.8c2.6,1.2,5.3,2.2,7.9,3.4c6.9,3.2,9.8,7.7,9,13.5c-0.9,6.1-5.6,10.5-12.5,11.7
			C302.5,76.7,300.9,76.7,299.2,76.9z"/>
		<path class="st0" d="M157.2,118c4.8-5.5,10.4-7.5,17-6.9c2.4,0.2,3.8,1,2.7,3.8c-0.4,1-0.6,2.2-0.8,3.3c-0.3,2.2-1.3,2.7-3.5,2.5
			c-10.1-0.9-15.1,3.8-15.2,14.1c0,5.7-0.1,11.5,0,17.2c0,2.2-0.7,3.3-3,3.1c-0.2,0-0.5,0-0.7,0c-7.1,0-6.2,0.5-6.2-6.2
			c0-10.7,0.1-21.5-0.1-32.2c-0.1-3.3,0.7-4.7,4.3-4.5C156.9,112.4,156.9,112.2,157.2,118z"/>
		<path class="st1" d="M408,214.6c-7.5,0-13.6-6.1-13.6-13.6c-0.1-7.6,6.2-13.8,13.9-13.7c7.5,0.1,13.5,6.2,13.4,13.7
			C421.6,208.6,415.5,214.6,408,214.6z"/>
		<path d="M634,214.6c-7.5,0.1-13.7-5.8-13.8-13.3c-0.1-7.6,5.7-13.7,13.3-13.9c7.7-0.2,14,5.9,14,13.5
			C647.5,208.3,641.5,214.5,634,214.6z"/>
		<path class="st2" d="M28.9,214.4c-0.3,0-0.5,0-0.7,0.1c-4.3,1.7-7.8,0.3-11.2-2.4l0,0c-5.8-3.6-6.4-9.1-5.3-15.1
			c0.4-0.9,1.2-1.6,1.5-2.6c0.2-0.3,0.3-0.6,0.5-0.8c1.5-1.5,3.1-3,4.6-4.6c0.7-1,1.7-1.4,2.9-1c0.5,0.3,0.9,1.1,1.4,1.1
			c0.6,0.1,1.3,2.1,2.2-0.2c0.5-1.4,3.1-1.1,4.8-1.2c1.9,0.5,4,0.9,5.1,3l0,0c2.3,0.6,2.3,2.8,3.1,4.4c2.5,7.5,0.6,13.6-6,18.1
			C31.3,214.4,30.2,214.7,28.9,214.4z"/>
		<path class="st3" d="M211.9,210.6c-5.2-4.9-6-14.3-1.5-18.5c6.8-6.4,15.9-6.4,21.5,0.1c4.9,5.7,3.7,14.7-2.5,19.4
			c-4.7,0.7-9.4,0.6-13.8-1.5C214.3,209.6,213.1,210.6,211.9,210.6z"/>
		<path class="st4" d="M520.9,202c-29.8,0-59.7,0-89.5,0c-0.6,0-1.2,0-1.9,0c-0.8,0-1.9,0.2-1.8-1.2c0.1-1,0.9-1,1.7-1
			c0.7,0,1.5,0,2.2,0c59.6,0,119.1,0,178.7,0c0.6,0,1.2,0,1.9,0c0.9,0,1.9,0.1,1.8,1.3c-0.1,1-1,0.9-1.7,1c-0.7,0-1.5,0-2.2,0
			C580.4,202,550.7,202,520.9,202z"/>
		<path class="st5" d="M264,54.1c0-6,0.1-12-0.1-17.9c-0.1-2.6,0.7-3.6,3.3-3.5c7.5,0.2,6.6-0.9,6.6,6.5c0,10.8-0.1,21.7,0.1,32.5
			c0,2.9-0.7,4-3.8,3.9c-7.3-0.2-6.1,0.6-6.2-6.1C264,64.3,264,59.2,264,54.1z"/>
		<path class="st0" d="M345.1,133.6c0-6,0.1-12,0-17.9c-0.1-2.5,0.6-3.6,3.3-3.5c7.9,0.2,6.5-0.6,6.6,6.5
			c0.1,10.7-0.1,21.4,0.1,32.1c0.1,3.6-1.2,4.7-4.5,4.3c-0.7-0.1-1.5-0.1-2.2,0c-2.4,0.3-3.3-0.7-3.2-3.2
			C345.2,145.8,345.1,139.7,345.1,133.6z"/>
		<path class="st4" d="M123,202c-24.5,0-49,0-73.4,0c-0.9,0-1.7,0-2.6,0c-0.7,0-1.6,0.2-1.7-0.9c-0.1-1.2,0.8-1.4,1.7-1.4
			c0.9,0,1.7,0,2.6,0c49.3,0,98.7,0,148,0c0.7,0,1.5,0,2.2,0c0.9,0,1.8,0.1,1.7,1.3c-0.1,1.1-1,0.9-1.7,0.9c-1.6,0-3.2,0-4.9,0
			C170.9,202,146.9,202,123,202z"/>
		<path class="st6" d="M589.1,73c-5,4.5-11.8,5.7-17.6,3c-6.1-2.9-8.5-8.2-8.5-14.6c0-9,5.6-16.9,13.7-19.5c8.7-2.8,15.6,0.3,20,9.3
			c1.5-7.1,2.9-13.6,4.3-20.1c0.1-0.6,0.2-1.2,0.3-1.8c0.3-1.3,0.6-2.7,2.3-2.3c1.9,0.4,0.5,1.9,0.3,2.7c-3,14.5-6.1,29-9.3,43.5
			c-0.3,1.2,0.3,3.7-2,3.2c-1.8-0.4-0.1-2.3-0.5-3.5c0.7-1.1-0.1-2-0.4-3c-0.2-0.7-0.4-1.4-0.4-2.1c0.7-3.5,2.7-6.6,2.8-10.4
			c0.1-5.3-1.7-9.5-6.4-11.7c-4.8-2.3-9.6-1.5-13.8,1.6c-5.4,3.9-7.6,9.5-7,16.1c0.7,7.9,7.9,12.3,15.5,10.1c2-0.6,3.7-2.1,6-1.7
			C589,72,589.4,72.3,589.1,73z"/>
		<path class="st4" d="M314.5,202c-23.2,0-46.5,0-69.7,0c-0.6,0-1.3,0-1.9,0c-0.8,0-1.9,0.2-1.9-1.2c0.1-1.2,1.1-1.1,2-1.1
			c0.7,0,1.5,0,2.2,0c46.4,0,92.7,0,139.1,0c0.9,0,1.7,0,2.6,0c0.7,0,1.2,0.3,1.3,1.1c0.1,1-0.6,1.2-1.4,1.2c-0.7,0-1.5,0-2.2,0
			C361.2,202,337.8,202,314.5,202z"/>
		<path class="st7" d="M624.4,59.3c-4.2,0-8.5,0.1-12.7,0c-2-0.1-2.5,0.7-2.5,2.6c0,7.9,7,13.7,15.9,13c3-0.2,5.9-0.8,8.7-2.1
			c0.7-0.4,1.6-1.1,2.2,0.2c0.5,1.2-0.5,1.5-1.2,2c-6.5,4.2-19,3-24.2-2.4c-5.4-5.7-5.8-15-0.9-22.5c4.9-7.5,14.8-11,22.6-7.9
			c5.9,2.3,9,8.4,7.7,14.6c-0.4,1.8-1.1,2.8-3.2,2.7C632.7,59.2,628.6,59.3,624.4,59.3z"/>
		<path class="st5" d="M350.2,93.1c4,0.1,6.4,2.4,6.4,6.3c0,4-2.5,6.4-6.7,6.3c-4-0.1-6.4-2.4-6.4-6.3
			C343.5,95.5,346,93.1,350.2,93.1z"/>
		<path class="st8" d="M268.8,26.3c-4-0.1-6.4-2.4-6.4-6.3c0-4,2.6-6.4,6.7-6.3c4,0.1,6.4,2.5,6.4,6.3C275.5,24,273,26.4,268.8,26.3
			z"/>
		<path class="st9" d="M211.9,210.6c2.9-4.6,5.8-0.1,8.6,0.2c1.8,0.2,3.3,1.2,5-0.2c1.7-1.4,2.6,0.2,3.8,1
			C223.7,215.9,217.1,215.5,211.9,210.6z"/>
		<path class="st10" d="M34.8,190.7c-1.8-0.5-3.1-2.3-5.1-2.4c-2.8-0.7-5.5,0.8-8.3,0c-1,0.2-2,0.5-3,0.7c0-0.5-1.4-0.9-0.5-1.3
			c4-1.8,8.3-2.3,12.3-1.2C31.2,186.7,36.6,185.9,34.8,190.7z"/>
		<path class="st11" d="M12.5,196.6c-2.3,6.3,0.5,11.1,4.5,15.6c-2.1,1.5-2.6-0.7-3.5-1.7c-2.4-2.5-3.7-12.7-2.1-15.4
			c0.5-0.9,1.3-1.5,2.4-1.6c0,0.2,0.1,0.4,0.1,0.6C13.4,195,13.1,195.9,12.5,196.6z"/>
		<path class="st11" d="M17,212.2c3.5,1.7,7.2,2.8,11.2,2.4c-1.1,2.2-3.6,2-4.8,1.4C21.2,214.7,17.3,216.4,17,212.2z"/>
		<path class="st10" d="M37.9,195c-1-1.5-2.1-2.9-3.1-4.4C39.7,189.4,37.3,193.3,37.9,195z"/>
		<path class="st12" d="M589.1,73c-0.4-0.4-0.7-0.7-1.1-1.1c0.4-2.2,1.7-3.4,3.8-3.9c0.3,0.6,0.6,1.2,0.9,1.8
			c-0.4,0.6-0.8,1.1-1.5,1.5C590.6,71.9,589.9,72.5,589.1,73z"/>
		<path class="st11" d="M28.9,214.4c1-0.4,2.1-0.8,3.1-1.2c0.5,0.3,1,0.6,1.5,0.9c-1,0.5-2,1.1-3,1.5
			C29.2,216.2,29,215.3,28.9,214.4z"/>
		<path class="st13" d="M591.3,71.4c0.2-0.7,0.6-1.3,1.5-1.5c0.1,1.1,0.1,2.2-0.6,3.1C591.9,72.4,591.6,71.9,591.3,71.4z"/>
		<path class="st14" d="M470.4,133.5c0.1-8.1,5.6-13.8,13.2-13.7c7.7,0.1,13.3,6.3,13.2,14.3c-0.2,7.8-6,13.6-13.6,13.5
			C475.5,147.3,470.3,141.6,470.4,133.5z"/>
		<path class="st15" d="M55,109c2.9,8,5.6,15.2,8.2,22.4c0.5,1.4-0.1,1.7-1.4,1.7c-5.1,0-10.1,0-15.6,0
			C49.1,125.1,51.9,117.6,55,109z"/>
		<path class="st14" d="M126.6,133.6c0,8-5.6,13.9-13.1,13.9c-7.8,0-13.5-5.9-13.5-13.9c0-8,5.7-13.9,13.5-13.9
			C121.1,119.8,126.6,125.6,126.6,133.6z"/>
		<path class="st14" d="M296.3,133.7c0-8,5.6-14.1,12.9-14.1c7.4,0,13.3,6.2,13.4,13.8c0,7.9-5.9,14.2-13.3,14.3
			C301.8,147.7,296.3,141.7,296.3,133.7z"/>
		<path class="st15" d="M432.8,135c0.5,0,1-0.1,1.5,0c1.9,0.3,4.5-0.5,5.3,1.6c0.8,2-0.6,4.1-1.9,5.8c-3.3,4-7.7,5.8-12.8,5.6
			c-2.4-0.1-4.5-0.8-5.3-3.3c-0.8-2.5,0-4.7,2-6.3C424.8,135.7,428.7,135,432.8,135z"/>
		<path class="st15" d="M517.3,55.6c0.4,0,0.8-0.1,1.1,0c1.9,0.3,4.5-0.6,5.3,1.5c0.8,2.1-0.6,4.3-2.1,6.1
			c-3.3,3.8-7.6,5.5-12.6,5.4c-2.4,0-4.5-0.9-5.3-3.3c-0.8-2.5,0-4.7,2-6.4C509.1,56.2,513.1,55.5,517.3,55.6z"/>
		<path class="st16" d="M380.3,49.6c-3,0-6,0-9,0c-1,0-2,0.2-1.7-1.5c0.8-4,5.5-7.9,10.1-8.2c5.3-0.4,9.6,2.4,11,7.1
			c0.7,2.3,0,2.8-2.2,2.7C385.8,49.5,383,49.6,380.3,49.6z"/>
		<path class="st16" d="M537.2,129.1c-2.9,0-5.7,0-8.6,0c-1.3,0-2.2,0-1.7-1.8c1-4.2,5.5-7.7,10.2-8c5-0.3,9.1,2.3,10.6,6.6
			c0.7,2.1,0.8,3.6-2.3,3.3C542.6,128.9,539.9,129.1,537.2,129.1z"/>
		<path class="st16" d="M191.2,129.1c1.2-6.1,5.1-9.7,10.7-9.8c5.2-0.1,9.3,2.7,10.5,7.3c0.4,1.6,0.6,2.6-1.7,2.5
			C204.2,129.1,197.7,129.1,191.2,129.1z"/>
		<path class="st14" d="M137.5,53.8c0.2-7.9,6-13.8,13.5-13.6c7.5,0.2,12.9,6.3,12.8,14.2c-0.1,7.9-5.9,13.9-13.3,13.8
			C142.9,68.1,137.4,61.9,137.5,53.8z"/>
		<path class="st17" d="M21.4,188.3c2.8-1.2,5.5-1.2,8.3,0c-1.5,0.3-3,0.7-4.5,1c0,1,1.5,0,1.4,1.3
			C24.8,189.9,21.7,192.3,21.4,188.3z"/>
		<path class="st18" d="M12.5,196.6c-0.1-1.1,0.4-1.8,1.3-2.4C13.9,195.3,14,196.3,12.5,196.6z"/>
		<path class="st9" d="M212.3,204.8c1.9-0.6,2.9-1.8,4-2.9c0.7-0.7,1.5-0.9,2.4-0.4c0.6,0.3,0.5,1,0.5,1.7c0,0.8-2,1.7-0.2,2.3
			c1.6,0.5,2.7,2.7,5,1c2-1.4,4.4-1.4,6.4,0.6c0.7,0.7,1.2,1.4,0.5,2.2c-0.8,0.9-1.3-0.2-1.7-0.6c-1.3-1.2-2.3-1.8-4.1-0.6
			c-2.4,1.6-4.9,0.3-7.3-0.9C216,206.2,214.6,204.6,212.3,204.8z"/>
		<path class="st19" d="M217.5,191.3c-0.1,0.6-0.6,0.7-1.1,0.7c-0.5,0-1.1,0-1.1-0.7c0-0.7,0.6-0.7,1.1-0.7
			C216.9,190.6,217.4,190.6,217.5,191.3z"/>
		<path class="st15" d="M623.2,57.1c-3.7,0-7.5-0.1-11.2,0c-2,0.1-2.3-0.6-1.7-2.4c2.5-7.5,10.8-12.6,18.6-11.1
			c3.7,0.7,6.4,2.7,7.9,6.2c2.2,5.1,0.8,7.2-4.6,7.2C629.2,57.1,626.2,57.1,623.2,57.1z"/>
	</g>
</g>
</svg>
