<?xml version="1.0" encoding="utf-8"?>
<!-- Generator: Adobe Illustrator 24.0.1, SVG Export Plug-In . SVG Version: 6.00 Build 0)  -->
<svg version="1.1" id="Layer_1" xmlns="http://www.w3.org/2000/svg" xmlns:xlink="http://www.w3.org/1999/xlink" x="0px" y="0px"
	 viewBox="0 0 2500 2500" style="enable-background:new 0 0 2500 2500;" xml:space="preserve">
<style type="text/css">
	.st0{fill-rule:evenodd;clip-rule:evenodd;fill:#FFFFFF;}
</style>
<g>
	<path class="st0" d="M1235.6,818c-15.5,103.2-100.1,110.4-150.7,12.4c-199.2-355-494.3-141.4-179.6,154.8
		c55.7,44.4,46.4,79.5-21.7,75.3c-337.4-122.8-271.4,82.6,74.3,167.2c51.6-7.2,89.8,24.8,46.4,56.7c-45.4,68.1,217.7,114.5,290,10.3
		c287.9,70.2,443.7-76.4,277.6-82.6c-70.2-10.3-44.4-64,9.3-70.2c346.7-117.6,343.6-393.2,7.2-186.8
		c-82.6,53.7-142.4,26.8-106.3-45.4C1704.1,574.5,1321.2,374.3,1235.6,818L1235.6,818z M1327.4,1334
		c-79.5,78.4-441.7,54.7-413.8-79.5c-413.8-135.2-441.7-415.9-122.8-285.8c-325-402.5,80.5-661.5,355-216.7
		c60.9-492.2,647-394.2,469.5,99.1c337.4-205.4,466.4,81.5,51.6,314.7C1871.2,1171,1566.8,1409.3,1327.4,1334L1327.4,1334z"/>
	<path class="st0" d="M1664.8,1629.1h-77.4V1819c-29.9,142.4-194,116.6-205.3,0l-1-191.9h-84.6l1,184.7
		c6.2,162,329.2,199.2,367.4,17.5V1629.1L1664.8,1629.1z M210.8,1938.7h81.5v-188.9c4.1-133.1,207.4-130,201.2,9.3v182.6h85.7
		v-189.9c-39.2-177.5-317.8-177.5-367.4-21.7L210.8,1938.7z M919.8,1944.9h80.5v-179.6c-13.4-226-470.6-176.4-340.5,111.5
		c48.5,78.4,169.2,93.9,238.4,45.4v-29.9c-73.3,16.5-127.9,34-168.2-52.6c-71.2-207.4,191.9-250.7,187.8-73.3L919.8,1944.9z
		 M2208.7,1957.3h80.5v-179.6c-13.4-226-470.6-176.5-340.5,111.5c48.5,78.4,169.2,92.9,238.4,45.4v-29.9
		c-73.3,16.5-127.9,34-168.2-52.6c-71.2-207.4,191.9-250.8,187.8-73.3L2208.7,1957.3z M1919.7,1633.3v27.9
		c-61.9-5.2-94.9,20.6-99.1,77.4l-5.2,212.6h-75.3v-215.7C1760.8,1642.6,1828.9,1611.6,1919.7,1633.3L1919.7,1633.3z M1161.3,1624
		h75.3l-2.1,53.7h-69.1v214.6c4.1,57.8,39.2,74.3,87.7,71.2v28.9c-92.9,11.4-161-12.4-175.4-115.6v-392.1h83.6L1161.3,1624
		L1161.3,1624z"/>
</g>
</svg>
