<?xml version="1.0" encoding="utf-8"?>
<!-- Generator: Adobe Illustrator 24.0.1, SVG Export Plug-In . SVG Version: 6.00 Build 0)  -->
<svg version="1.1" id="Layer_1" xmlns="http://www.w3.org/2000/svg" xmlns:xlink="http://www.w3.org/1999/xlink" x="0px" y="0px"
	 viewBox="0 0 2500 342" style="enable-background:new 0 0 2500 342;" xml:space="preserve">
<style type="text/css">
	.st0{fill-rule:evenodd;clip-rule:evenodd;fill:#FFFFFF;}
</style>
<path class="st0" d="M2426.2,246c-6.8,15.7-16.6,29.9-28.9,41.8c-12.7,12.1-27.7,21.6-44.1,28c-17.1,6.8-35.6,10.2-55.5,10.2
	c-19.9,0-38.4-3.4-55.3-10.2c-16.3-6.4-31.2-15.9-43.9-28c-12.3-11.9-22.2-26.1-28.9-41.8c-7-16.1-10.5-33.5-10.5-52.3
	c-0.1-35.2,14.1-68.8,39.4-93.2c12.7-12.1,27.6-21.6,43.9-28c17-6.8,35.4-10.2,55.3-10.2c19.9,0,38.4,3.4,55.5,10.2
	c17.1,6.8,31.8,16.1,44.1,28c25.3,24.4,39.5,58.1,39.4,93.2C2436.7,212.5,2433.2,229.9,2426.2,246z M2344.8,145.7
	c-12.1-13.2-27.9-19.8-47.1-19.8c-18.7,0-34.2,6.6-46.5,19.8c-12.3,13.2-18.4,29.2-18.4,48c0,19.7,6.1,36.2,18.4,49.3
	c12.3,13.2,27.8,19.8,46.5,19.8c19.3,0,35-6.6,47.1-19.8c12.1-13.2,18.2-29.6,18.2-49.3C2362.9,174.9,2356.9,158.9,2344.8,145.7z
	 M2075.5,326c-21.8,0-41.7-3.4-59.8-10.2c-18-6.8-33.4-16.1-46-28c-12.6-11.8-22.6-26.2-29.4-42.1c-7-16.4-10.6-34.2-10.5-52
	c0-18.2,3.5-35.3,10.5-51.4c6.8-15.8,16.8-30,29.4-41.6c12.6-11.7,27.9-21,46-28c18.1-7,38.1-10.5,60.2-10.5
	c10.3,0,20.5,1.1,30.8,3.2c10.3,2.1,18.8,4.7,25.7,7.7v65c-6.3-2.7-12.9-4.9-19.6-6.6c-8.4-2.3-18.4-3.4-29.9-3.4
	c-24.3,0-43.2,6.4-56.9,19.1c-13.7,12.7-20.5,28.2-20.5,46.4c0,19.1,6.8,35,20.5,47.7c13.7,12.7,32.7,19.1,56.9,19.1
	c11.5,0,21.5-1.2,29.9-3.6c6.7-1.8,13.2-4.1,19.6-6.8v65c-6.5,3-15,5.6-25.4,7.7C2096.6,324.9,2086,326,2075.5,326L2075.5,326z
	 M1845,318.7l-20.1-20.5c-13.4,8.5-27.1,14.9-41.1,19.3c-13.6,4.3-27.7,6.6-42,6.6c-14.6,0-27.5-1.9-38.7-5.7
	c-11.2-3.8-20.5-8.8-28-15c-14.2-11.5-22.4-28.8-22.4-47.1c0-11.8,3.3-23.3,9.8-34.5c6.5-11.2,18.8-21.5,36.9-30.9l12.6-6.8
	c-9.7-10.3-16.5-20.5-20.5-30.5c-4-10-6.1-19.4-6.1-28.2c0-19.4,7.9-35.8,23.8-49.1c15.9-13.3,35.2-20,57.9-20
	c12.4,0,23.5,1.9,33.1,5.7c9.6,3.8,17.7,8.9,24.3,15.2c6.6,6.4,11.5,13.5,14.9,21.4s5.1,15.9,5.1,24.1c0.1,14-4.3,27.7-12.6,39.1
	c-8.4,11.8-20.1,22.3-35,31.4l30.3,32.3c4-4.8,7.9-10,11.7-15.5c3.6-5.2,6.6-10.9,8.9-16.8h62.5c-5.7,13.6-12.6,26.7-20.5,39.1
	c-7.4,11.6-15.8,22.6-25.2,32.7l50.9,53.6L1845,318.7z M1780.1,115.7c-3.1-3.8-7.6-5.7-13.5-5.7c-5.3,0-9.9,1.8-13.8,5.5
	c-3.9,3.6-5.8,8.2-5.8,13.6c0,3.6,0.8,7.3,2.6,11.1c1.7,3.8,4.7,8,9.1,12.5l3.7,4.1c6.8-3.9,12.3-8.3,16.3-13.2
	c4-4.8,6.1-10.2,6.1-15.9C1784.7,123.5,1783.2,119.5,1780.1,115.7L1780.1,115.7z M1747.4,220.1l-10.7,5.4c-7.2,3.9-12.1,8-14.9,12.3
	c-2.7,4-4.2,8.8-4.2,13.6c0,4.9,2.3,9.5,7,13.9c4.7,4.4,11.4,6.6,20.1,6.6c6.8,0,13.8-1.1,21-3.2c7.3-2.2,14.4-5.2,21-9.1
	L1747.4,220.1z M1498.3,288.3c-9.3,12.2-21.5,21.9-35.5,28.2c-14.4,6.4-30,9.7-45.7,9.5c-16.7,0.1-33.3-3.3-48.5-10.2
	c-14.6-6.6-27.7-16-38.5-27.7c-11-12.1-19.6-26.2-25.2-41.6c-6.2-16.6-9.2-34.2-9.1-51.8c0-18.2,3.1-35.4,9.3-51.6
	c5.8-15.5,14.4-29.7,25.4-42.1c10.9-11.9,24.1-21.5,38.7-28.2c15.3-7,31.9-10.6,48.8-10.5c15.2,0,29.4,2.9,42.5,8.6
	c13.1,5.8,24.8,14.5,34.1,25.5V69.6h70.5v249.2h-66.7V288.3z M1481.1,146.2c-12.5-13.5-28.3-20.2-47.6-20.2c-18.7,0-34,6.7-46,20.2
	c-12,13.5-18,29.6-18,48.4c0,19.1,6,35.2,18,48.4c12,13.2,27.3,19.8,46,19.8c19.3,0,35.2-6.7,47.6-20c12.4-13.4,18.7-29.7,18.7-49.1
	C1499.7,175.5,1493.5,159.7,1481.1,146.2z M1222,140.3c-5.9,5.6-8.9,13.3-8.9,23v155.5h-75.6V158.2c0-27.6,8.5-49.3,25.4-65
	c17-15.8,40.4-23.6,70.2-23.6h46.7v62.3h-32.2C1236.5,131.9,1227.9,134.7,1222,140.3z M968.1,326c-39.8,0-70.7-10.8-92.7-32.3
	c-21.9-21.5-32.9-50.5-32.9-86.9V69.6h77.5V211c0,15.5,3.9,28.1,11.7,38c7.8,9.8,19.9,14.8,36.4,14.8c16.8,0,29-4.9,36.6-14.8
	c7.6-9.8,11.4-22.5,11.4-38V69.6h77.5v137.3c0,36.7-11,65.7-32.9,87.1C1038.8,315.3,1007.9,326,968.1,326z M685.5,295.1
	c-17-15.8-25.4-37.4-25.4-65V0h75.6v69.6h66.8v62.3h-66.8v93.2c0,9.7,3,17.4,8.9,23c5.9,5.6,14.4,8.4,25.7,8.4h32.2v62.3h-46.7
	C725.9,318.7,702.5,310.9,685.5,295.1z M546.2,288.3c-9.3,12.2-21.5,21.9-35.5,28.2c-14.4,6.4-30,9.7-45.7,9.5
	c-16.7,0.1-33.3-3.3-48.5-10.2c-14.6-6.6-27.7-16-38.5-27.7c-11-12.1-19.6-26.2-25.2-41.6c-6.2-16.6-9.2-34.2-9.1-51.8
	c0-18.2,3.1-35.4,9.3-51.6c5.8-15.5,14.4-29.7,25.4-42.1c10.9-11.9,24.1-21.5,38.7-28.2c15.3-7,31.9-10.6,48.8-10.5
	c15.2,0,29.4,2.9,42.5,8.6c13.1,5.8,24.8,14.5,34.1,25.5V69.6H613v249.2h-66.8V288.3z M529,146.2c-12.4-13.5-28.3-20.2-47.6-20.2
	c-18.7,0-34,6.7-46,20.2c-12,13.5-18,29.6-18,48.4c0,19.1,6,35.2,18,48.4c12,13.2,27.3,19.8,46,19.8c19.3,0,35.2-6.7,47.6-20
	c12.4-13.4,18.7-29.7,18.7-49.1C547.6,175.5,541.4,159.7,529,146.2L529,146.2z M282.5,321h-14c-6.2,0-11.7-1-16.6-3
	c-5.1-2.1-9.6-5.3-13.3-9.3L124.8,183.2v135.5H51.5V90.9c0-7.6,2.1-13.4,6.3-17.5c4.2-4.1,10.2-6.1,18-6.1h14c6.2,0,11.7,1,16.6,3
	c4.8,2,9.3,5.1,13.3,9.3l113.4,125v-135h73.8v227.8c0,7.6-2.1,13.4-6.3,17.5C296.3,319,290.3,321,282.5,321z"/>
</svg>
