<?xml version="1.0" encoding="utf-8"?>
<!-- Generator: Adobe Illustrator 24.0.1, SVG Export Plug-In . SVG Version: 6.00 Build 0)  -->
<svg version="1.1" id="Layer_1" xmlns="http://www.w3.org/2000/svg" xmlns:xlink="http://www.w3.org/1999/xlink" x="0px" y="0px"
	 viewBox="0 0 2500 765" style="enable-background:new 0 0 2500 765;" xml:space="preserve">
<style type="text/css">
	.st0{fill:#FFFFFF;}
</style>
<path class="st0" d="M2093.1,675.9h-41.7v-52.2h41.7c16.3,0,26.1,9.7,26.1,26.1s-9.2,26.3-26.1,26.3 M2093.6,597.6h-69.2v164.6h27
	v-60.2h40.6c34,0,55.1-20.1,55.1-52.4C2147.1,617.5,2126.6,597.6,2093.6,597.6 M1921.4,622.3c25.8,0,43.1,23.2,43.1,57.8
	c0,34.6-16.5,57.4-42.2,57.4s-42.9-23.2-42.9-57.8s16.5-57.4,41.9-57.4 M1922,595c-42.2,0-70.6,34.2-70.6,85.1
	c0,50.9,28.2,84.6,70.1,84.6s70.8-34.2,70.8-85.1C1992.4,628.8,1964.1,595,1922,595 M1792,662.8h-71v-65.3h-27.5v164.6h27.5v-72h71
	v72h27.5V597.5H1792V662.8z M1609.5,664c-29.4-8.7-34.1-14.1-34.1-23.6c0-11.5,9.4-18.5,25.3-18.5c15.9,0,26.3,4.6,36.4,15l1.1,1.2
	l19.4-19.6l-1.2-1.1c-15.8-15.3-32.9-22.3-54-22.3c-32.4,0-55,19.1-55,46.6c0,31.4,19.5,39.5,51.6,49.1c27,8.1,35.2,14,35.2,25.2
	c0,5.5,0,21.8-31.8,21.8c-14.5,0-30.1-7.1-40.8-18.6l-1.1-1.2l-19.6,19.1l1,1.1c14.6,17.1,35.5,26.7,58.7,26.7
	c53.3,0,61.4-31.6,61.4-50.5c0-31.6-23.9-41.4-52.9-50.2 M1420.9,643.4c-5,8.9-11.7,21.6-15.1,28.8c-3.6-7.3-10.3-20.3-15.1-29
	l-25.6-45.3h-32.1l59.1,99.6v65h27.5v-65l59.1-99.6h-31.8l-25.8,45.5H1420.9z M1229.1,624.7h18.2c43.2,0,52.4,30.1,52.4,55.6
	c0,25.4-9.1,55.6-52.4,55.6h-18.2v-111V624.7z M1247.3,597.9h-45.7v164.6h45.7c18.9,0,80.3-6,80.3-82.4c0-51.6-30-82.4-80.3-82.4
	 M1098.7,622.4c25.8,0,43.1,23.2,43.1,57.8s-16.5,57.4-42.2,57.4c-25.7,0-42.9-23.2-42.9-57.8s16.5-57.4,41.9-57.4 M1099.3,595.2
	c-42.2,0-70.6,34.2-70.6,85.1c0,50.9,28.2,84.6,70.1,84.6c41.9,0,70.8-34.2,70.8-85.1C1169.7,628.9,1141.4,595.2,1099.3,595.2
	 M949.7,661.5H908v-38.5h41.7c17.1,0,20.7,10.7,20.7,19.6C970.4,647.1,968.9,661.5,949.7,661.5 M949.4,737H908v-50.2h42.2
	c17.1,0,26.9,9.2,26.9,25.1c0,16.9-9.1,25.1-27.7,25.1 M979.8,673.1c11.8-7.1,18-18,18-31.9c0-27.3-18-43.5-48-43.5h-68v164.6h65.8
	c36.7,0,56.9-18.2,56.9-51.2C1004.5,689.9,991.9,677.8,979.8,673.1 M693.7,687.7h46.4v-26.8h-46.4v-36.6h79.8v-26.8H666.2v164.6
	h110.7v-26.8h-83.2v-47.6H693.7z M599.2,662.8h-71v-65.3h-27.5v164.6h27.5v-72h71v72h27.5V597.5h-27.5V662.8z M352.9,624.6h47v137.7
	h27.5V624.6h47v-27H352.9L352.9,624.6z M1339.5,6.3c-12.3,2.1-21.5,12.9-21.5,25.8c0,11.8,5.5,20,18.7,25.1
	c105.1,39.2,167.9,147.1,131.6,248.3c-32,89.3-117.4,153.5-218,153.5c-100.6,0-186-64.1-218-153.5c-36.2-101,26.6-209.1,131.6-248.3
	c13.3-5.1,18.7-13.4,18.7-25.3c0-12.8-9.3-23.3-21.5-25.6C1125.6,0,1004.7,84,1005.6,228.2c1,136.5,111.2,243.3,244.8,243.3
	s243.4-106.9,244.4-243.3C1495.8,84,1375.2,0,1339.6,6.3L1339.5,6.3z"/>
<path class="st0" d="M1462.1,286.3c-21.5-31.5-52.7-60.4-95.2-80.1c-9.6-4.5-13.8-10.3-13.8-19.7c0-11.2,8.7-21.1,21.5-21.1
	C1398.2,165.4,1448.6,227.5,1462.1,286.3L1462.1,286.3z"/>
<path class="st0" d="M1358.7,85.7c-13-0.4-23.7,10.5-23.7,23.6c0,9.8,3.8,17,14.6,21.8c60.7,27.2,97,75.9,116.3,131.5
	c11.8-97-75.8-175.9-107.3-176.9H1358.7z M1038.7,286.3c21.5-31.5,52.7-60.4,95.2-80.1c9.6-4.5,13.8-10.3,13.8-19.7
	c0-11.2-8.7-21.1-21.5-21.1C1102.5,165.4,1052.2,227.5,1038.7,286.3L1038.7,286.3z"/>
<path class="st0" d="M1142.1,85.7c13-0.4,23.7,10.5,23.7,23.6c0,9.8-3.8,17-14.6,21.8c-60.7,27.2-97,75.9-116.3,131.5
	c-11.8-97,75.8-175.9,107.3-176.9H1142.1z"/>
</svg>
